<mxfile host="app.diagrams.net" agent="Mozilla/5.0 (Windows NT 10.0; Win64; x64) AppleWebKit/537.36 (KHTML, like Gecko) Chrome/134.0.0.0 Safari/537.36" version="26.2.4">
  <diagram name="Page-1" id="wsCPM8hLI4gDSXH8bUM_">
    <mxGraphModel dx="1428" dy="743" grid="1" gridSize="10" guides="1" tooltips="1" connect="1" arrows="1" fold="1" page="1" pageScale="1" pageWidth="850" pageHeight="1100" math="0" shadow="0">
      <root>
        <mxCell id="0" />
        <mxCell id="1" parent="0" />
        <mxCell id="YCi8pKAYH45fGRYkOdii-3" style="edgeStyle=orthogonalEdgeStyle;rounded=0;orthogonalLoop=1;jettySize=auto;html=1;entryX=0;entryY=0.5;entryDx=0;entryDy=0;" edge="1" parent="1" source="YCi8pKAYH45fGRYkOdii-1" target="YCi8pKAYH45fGRYkOdii-2">
          <mxGeometry relative="1" as="geometry" />
        </mxCell>
        <mxCell id="YCi8pKAYH45fGRYkOdii-1" value="Audio Files" style="rounded=0;whiteSpace=wrap;html=1;" vertex="1" parent="1">
          <mxGeometry x="110" y="270" width="130" height="80" as="geometry" />
        </mxCell>
        <mxCell id="YCi8pKAYH45fGRYkOdii-6" style="edgeStyle=orthogonalEdgeStyle;rounded=0;orthogonalLoop=1;jettySize=auto;html=1;entryX=0;entryY=0.5;entryDx=0;entryDy=0;" edge="1" parent="1" source="YCi8pKAYH45fGRYkOdii-2" target="YCi8pKAYH45fGRYkOdii-5">
          <mxGeometry relative="1" as="geometry" />
        </mxCell>
        <mxCell id="YCi8pKAYH45fGRYkOdii-2" value="Mel Spectrogram Converter" style="rounded=0;whiteSpace=wrap;html=1;" vertex="1" parent="1">
          <mxGeometry x="340" y="265" width="130" height="90" as="geometry" />
        </mxCell>
        <mxCell id="YCi8pKAYH45fGRYkOdii-9" style="edgeStyle=orthogonalEdgeStyle;rounded=0;orthogonalLoop=1;jettySize=auto;html=1;entryX=0.5;entryY=0;entryDx=0;entryDy=0;" edge="1" parent="1" source="YCi8pKAYH45fGRYkOdii-5" target="YCi8pKAYH45fGRYkOdii-8">
          <mxGeometry relative="1" as="geometry" />
        </mxCell>
        <mxCell id="YCi8pKAYH45fGRYkOdii-5" value="Spiking Tokenizer" style="rounded=0;whiteSpace=wrap;html=1;" vertex="1" parent="1">
          <mxGeometry x="570" y="265" width="130" height="90" as="geometry" />
        </mxCell>
        <mxCell id="YCi8pKAYH45fGRYkOdii-12" style="edgeStyle=orthogonalEdgeStyle;rounded=0;orthogonalLoop=1;jettySize=auto;html=1;" edge="1" parent="1" source="YCi8pKAYH45fGRYkOdii-8" target="YCi8pKAYH45fGRYkOdii-11">
          <mxGeometry relative="1" as="geometry" />
        </mxCell>
        <mxCell id="YCi8pKAYH45fGRYkOdii-8" value="Spiking Neural Network/ Transformer" style="rounded=0;whiteSpace=wrap;html=1;" vertex="1" parent="1">
          <mxGeometry x="570" y="440" width="130" height="90" as="geometry" />
        </mxCell>
        <mxCell id="YCi8pKAYH45fGRYkOdii-11" value="Classification" style="rounded=0;whiteSpace=wrap;html=1;" vertex="1" parent="1">
          <mxGeometry x="340" y="440" width="130" height="90" as="geometry" />
        </mxCell>
        <mxCell id="YCi8pKAYH45fGRYkOdii-13" value="Complete&lt;span style=&quot;color: rgba(0, 0, 0, 0); font-family: monospace; font-size: 0px; text-align: start; text-wrap-mode: nowrap;&quot;&gt;%3CmxGraphModel%3E%3Croot%3E%3CmxCell%20id%3D%220%22%2F%3E%3CmxCell%20id%3D%221%22%20parent%3D%220%22%2F%3E%3CmxCell%20id%3D%222%22%20value%3D%22Spiking%20Neural%20Network%2F%20Transformer%22%20style%3D%22rounded%3D0%3BwhiteSpace%3Dwrap%3Bhtml%3D1%3B%22%20vertex%3D%221%22%20parent%3D%221%22%3E%3CmxGeometry%20x%3D%22570%22%20y%3D%22440%22%20width%3D%22130%22%20height%3D%2290%22%20as%3D%22geometry%22%2F%3E%3C%2FmxCell%3E%3C%2Froot%3E%3C%2FmxGraphModel%3E&lt;/span&gt;" style="text;html=1;align=center;verticalAlign=middle;whiteSpace=wrap;rounded=0;" vertex="1" parent="1">
          <mxGeometry x="145" y="235" width="60" height="30" as="geometry" />
        </mxCell>
        <mxCell id="YCi8pKAYH45fGRYkOdii-14" value="Complete&lt;span style=&quot;color: rgba(0, 0, 0, 0); font-family: monospace; font-size: 0px; text-align: start; text-wrap-mode: nowrap;&quot;&gt;%3CmxGraphModel%3E%3Croot%3E%3CmxCell%20id%3D%220%22%2F%3E%3CmxCell%20id%3D%221%22%20parent%3D%220%22%2F%3E%3CmxCell%20id%3D%222%22%20value%3D%22Spiking%20Neural%20Network%2F%20Transformer%22%20style%3D%22rounded%3D0%3BwhiteSpace%3Dwrap%3Bhtml%3D1%3B%22%20vertex%3D%221%22%20parent%3D%221%22%3E%3CmxGeometry%20x%3D%22570%22%20y%3D%22440%22%20width%3D%22130%22%20height%3D%2290%22%20as%3D%22geometry%22%2F%3E%3C%2FmxCell%3E%3C%2Froot%3E%3C%2FmxGraphModel%3E&lt;/span&gt;" style="text;html=1;align=center;verticalAlign=middle;whiteSpace=wrap;rounded=0;" vertex="1" parent="1">
          <mxGeometry x="375" y="230" width="60" height="30" as="geometry" />
        </mxCell>
        <mxCell id="YCi8pKAYH45fGRYkOdii-15" value="In Progress" style="text;html=1;align=center;verticalAlign=middle;whiteSpace=wrap;rounded=0;" vertex="1" parent="1">
          <mxGeometry x="605" y="235" width="75" height="30" as="geometry" />
        </mxCell>
        <mxCell id="YCi8pKAYH45fGRYkOdii-16" value="In Progress" style="text;html=1;align=center;verticalAlign=middle;whiteSpace=wrap;rounded=0;" vertex="1" parent="1">
          <mxGeometry x="597.5" y="535" width="75" height="30" as="geometry" />
        </mxCell>
        <mxCell id="YCi8pKAYH45fGRYkOdii-17" value="In Progress" style="text;html=1;align=center;verticalAlign=middle;whiteSpace=wrap;rounded=0;" vertex="1" parent="1">
          <mxGeometry x="367.5" y="535" width="75" height="30" as="geometry" />
        </mxCell>
      </root>
    </mxGraphModel>
  </diagram>
</mxfile>
